<svg width="146" height="205" viewBox="0 0 146 205" fill="none" xmlns="http://www.w3.org/2000/svg">
<path d="M4.45312 25.5035C5.44523 14.7617 13.8997 6.30766 24.6224 5.12751L68.7908 0.266322C70.3995 0.0892684 72.0224 0.0825041 73.6325 0.246141L121.736 5.13491C133.106 6.29042 141.902 15.6188 142.39 27.0366L145.321 95.7439L142.285 178.619C141.86 190.22 132.857 199.685 121.293 200.691L73.2853 204.865C71.905 204.985 70.5167 204.98 69.1372 204.85L25.0006 200.694C14.1028 199.668 5.44588 191.122 4.46435 180.22C2.60593 159.578 -0.0195061 126.025 0.000109273 101.391C0.0189744 77.6991 2.60905 45.4697 4.45312 25.5035Z" fill="#F97F35"/>
</svg>
